<mxfile host="app.diagrams.net" modified="2023-12-14T07:58:01.968Z" agent="Mozilla/5.0 (Windows NT 10.0; Win64; x64) AppleWebKit/537.36 (KHTML, like Gecko) Chrome/119.0.0.0 Safari/537.36" etag="be81sP3Gy9HKGKGlu9gc" version="22.1.8" type="github">
  <diagram name="Page-1" id="58cdce13-f638-feb5-8d6f-7d28b1aa9fa0">
    <mxGraphModel dx="2387" dy="676" grid="1" gridSize="10" guides="1" tooltips="1" connect="1" arrows="1" fold="1" page="1" pageScale="1" pageWidth="1100" pageHeight="850" background="none" math="0" shadow="0">
      <root>
        <mxCell id="0" />
        <mxCell id="1" parent="0" />
        <mxCell id="ZnBpWJx0D-PWCoCfkPdr-1" value="«interface»&lt;br&gt;&lt;b&gt;BeanFactory&lt;/b&gt;" style="html=1;whiteSpace=wrap;" vertex="1" parent="1">
          <mxGeometry x="370" y="130" width="110" height="50" as="geometry" />
        </mxCell>
        <mxCell id="ZnBpWJx0D-PWCoCfkPdr-3" style="edgeStyle=orthogonalEdgeStyle;rounded=1;orthogonalLoop=1;jettySize=auto;html=1;entryX=0.5;entryY=1;entryDx=0;entryDy=0;" edge="1" parent="1" source="ZnBpWJx0D-PWCoCfkPdr-2" target="ZnBpWJx0D-PWCoCfkPdr-1">
          <mxGeometry relative="1" as="geometry" />
        </mxCell>
        <mxCell id="ZnBpWJx0D-PWCoCfkPdr-2" value="«interface»分层&lt;br&gt;&lt;b&gt;HierarchicalBeanFactory&lt;/b&gt;" style="html=1;whiteSpace=wrap;" vertex="1" parent="1">
          <mxGeometry x="250" y="260" width="160" height="50" as="geometry" />
        </mxCell>
        <mxCell id="ZnBpWJx0D-PWCoCfkPdr-5" style="edgeStyle=orthogonalEdgeStyle;rounded=1;orthogonalLoop=1;jettySize=auto;html=1;entryX=0.5;entryY=1;entryDx=0;entryDy=0;" edge="1" parent="1" source="ZnBpWJx0D-PWCoCfkPdr-4" target="ZnBpWJx0D-PWCoCfkPdr-1">
          <mxGeometry relative="1" as="geometry" />
        </mxCell>
        <mxCell id="ZnBpWJx0D-PWCoCfkPdr-4" value="«interface»&lt;br&gt;&lt;b&gt;ListableBeanFactory&lt;/b&gt;" style="html=1;whiteSpace=wrap;" vertex="1" parent="1">
          <mxGeometry x="450" y="260" width="130" height="50" as="geometry" />
        </mxCell>
        <mxCell id="ZnBpWJx0D-PWCoCfkPdr-7" style="edgeStyle=orthogonalEdgeStyle;shape=connector;rounded=1;orthogonalLoop=1;jettySize=auto;html=1;labelBackgroundColor=default;strokeColor=default;align=center;verticalAlign=middle;fontFamily=Helvetica;fontSize=11;fontColor=default;endArrow=classic;" edge="1" parent="1" source="ZnBpWJx0D-PWCoCfkPdr-6" target="ZnBpWJx0D-PWCoCfkPdr-2">
          <mxGeometry relative="1" as="geometry" />
        </mxCell>
        <mxCell id="ZnBpWJx0D-PWCoCfkPdr-8" style="edgeStyle=orthogonalEdgeStyle;shape=connector;rounded=1;orthogonalLoop=1;jettySize=auto;html=1;entryX=0.5;entryY=1;entryDx=0;entryDy=0;labelBackgroundColor=default;strokeColor=default;align=center;verticalAlign=middle;fontFamily=Helvetica;fontSize=11;fontColor=default;endArrow=classic;exitX=0.5;exitY=0;exitDx=0;exitDy=0;" edge="1" parent="1" source="ZnBpWJx0D-PWCoCfkPdr-6" target="ZnBpWJx0D-PWCoCfkPdr-4">
          <mxGeometry relative="1" as="geometry" />
        </mxCell>
        <mxCell id="ZnBpWJx0D-PWCoCfkPdr-10" style="edgeStyle=orthogonalEdgeStyle;shape=connector;rounded=1;orthogonalLoop=1;jettySize=auto;html=1;exitX=0.5;exitY=0;exitDx=0;exitDy=0;entryX=0.5;entryY=1;entryDx=0;entryDy=0;labelBackgroundColor=default;strokeColor=default;align=center;verticalAlign=middle;fontFamily=Helvetica;fontSize=11;fontColor=default;endArrow=classic;" edge="1" parent="1" source="ZnBpWJx0D-PWCoCfkPdr-6" target="ZnBpWJx0D-PWCoCfkPdr-9">
          <mxGeometry relative="1" as="geometry" />
        </mxCell>
        <mxCell id="ZnBpWJx0D-PWCoCfkPdr-13" style="edgeStyle=orthogonalEdgeStyle;shape=connector;rounded=1;orthogonalLoop=1;jettySize=auto;html=1;exitX=0.5;exitY=0;exitDx=0;exitDy=0;entryX=0.5;entryY=1;entryDx=0;entryDy=0;labelBackgroundColor=default;strokeColor=default;align=center;verticalAlign=middle;fontFamily=Helvetica;fontSize=11;fontColor=default;endArrow=classic;" edge="1" parent="1" source="ZnBpWJx0D-PWCoCfkPdr-6" target="ZnBpWJx0D-PWCoCfkPdr-12">
          <mxGeometry relative="1" as="geometry" />
        </mxCell>
        <mxCell id="ZnBpWJx0D-PWCoCfkPdr-16" style="edgeStyle=orthogonalEdgeStyle;shape=connector;rounded=1;orthogonalLoop=1;jettySize=auto;html=1;exitX=0.5;exitY=0;exitDx=0;exitDy=0;entryX=0.5;entryY=1;entryDx=0;entryDy=0;labelBackgroundColor=default;strokeColor=default;align=center;verticalAlign=middle;fontFamily=Helvetica;fontSize=11;fontColor=default;endArrow=classic;" edge="1" parent="1" source="ZnBpWJx0D-PWCoCfkPdr-6" target="ZnBpWJx0D-PWCoCfkPdr-15">
          <mxGeometry relative="1" as="geometry" />
        </mxCell>
        <mxCell id="ZnBpWJx0D-PWCoCfkPdr-20" style="edgeStyle=orthogonalEdgeStyle;shape=connector;rounded=1;orthogonalLoop=1;jettySize=auto;html=1;exitX=0.5;exitY=0;exitDx=0;exitDy=0;entryX=0.5;entryY=1;entryDx=0;entryDy=0;labelBackgroundColor=default;strokeColor=default;align=center;verticalAlign=middle;fontFamily=Helvetica;fontSize=11;fontColor=default;endArrow=classic;" edge="1" parent="1" source="ZnBpWJx0D-PWCoCfkPdr-6" target="ZnBpWJx0D-PWCoCfkPdr-19">
          <mxGeometry relative="1" as="geometry" />
        </mxCell>
        <mxCell id="ZnBpWJx0D-PWCoCfkPdr-6" value="«interface»&lt;br&gt;&lt;b&gt;ApplicationContext&lt;/b&gt;" style="html=1;whiteSpace=wrap;" vertex="1" parent="1">
          <mxGeometry x="180" y="410" width="130" height="45" as="geometry" />
        </mxCell>
        <mxCell id="ZnBpWJx0D-PWCoCfkPdr-9" value="«interface»&lt;br&gt;&lt;b&gt;EnvironmentCapable&lt;/b&gt;" style="html=1;whiteSpace=wrap;" vertex="1" parent="1">
          <mxGeometry x="620" y="260" width="140" height="50" as="geometry" />
        </mxCell>
        <mxCell id="ZnBpWJx0D-PWCoCfkPdr-11" value="获取环境变量" style="text;html=1;align=center;verticalAlign=middle;resizable=0;points=[];autosize=1;strokeColor=none;fillColor=none;fontSize=11;fontFamily=Helvetica;fontColor=default;" vertex="1" parent="1">
          <mxGeometry x="690" y="310" width="90" height="30" as="geometry" />
        </mxCell>
        <mxCell id="ZnBpWJx0D-PWCoCfkPdr-12" value="«interface»&lt;br&gt;&lt;b&gt;MessageSource&lt;/b&gt;" style="html=1;whiteSpace=wrap;" vertex="1" parent="1">
          <mxGeometry x="100" y="260" width="110" height="50" as="geometry" />
        </mxCell>
        <mxCell id="ZnBpWJx0D-PWCoCfkPdr-14" value="国际化" style="text;html=1;align=center;verticalAlign=middle;resizable=0;points=[];autosize=1;strokeColor=none;fillColor=none;fontSize=11;fontFamily=Helvetica;fontColor=default;" vertex="1" parent="1">
          <mxGeometry x="150" y="308" width="60" height="30" as="geometry" />
        </mxCell>
        <mxCell id="ZnBpWJx0D-PWCoCfkPdr-15" value="«interface»&lt;br&gt;&lt;b&gt;ApplicationEventPublish&lt;/b&gt;" style="html=1;whiteSpace=wrap;" vertex="1" parent="1">
          <mxGeometry x="-90" y="260" width="160" height="52" as="geometry" />
        </mxCell>
        <mxCell id="ZnBpWJx0D-PWCoCfkPdr-17" value="事件发布" style="text;html=1;align=center;verticalAlign=middle;resizable=0;points=[];autosize=1;strokeColor=none;fillColor=none;fontSize=11;fontFamily=Helvetica;fontColor=default;" vertex="1" parent="1">
          <mxGeometry x="-15" y="308" width="70" height="30" as="geometry" />
        </mxCell>
        <mxCell id="ZnBpWJx0D-PWCoCfkPdr-18" value="创建Bean" style="text;html=1;align=center;verticalAlign=middle;resizable=0;points=[];autosize=1;strokeColor=none;fillColor=none;fontSize=11;fontFamily=Helvetica;fontColor=default;" vertex="1" parent="1">
          <mxGeometry x="430" y="180" width="70" height="30" as="geometry" />
        </mxCell>
        <mxCell id="ZnBpWJx0D-PWCoCfkPdr-22" style="edgeStyle=orthogonalEdgeStyle;shape=connector;rounded=1;orthogonalLoop=1;jettySize=auto;html=1;entryX=0.5;entryY=1;entryDx=0;entryDy=0;labelBackgroundColor=default;strokeColor=default;align=center;verticalAlign=middle;fontFamily=Helvetica;fontSize=11;fontColor=default;endArrow=classic;" edge="1" parent="1" source="ZnBpWJx0D-PWCoCfkPdr-19" target="ZnBpWJx0D-PWCoCfkPdr-21">
          <mxGeometry relative="1" as="geometry" />
        </mxCell>
        <mxCell id="ZnBpWJx0D-PWCoCfkPdr-19" value="«interface»&lt;br&gt;&lt;b&gt;ResourcePatternResolver&lt;/b&gt;" style="html=1;whiteSpace=wrap;" vertex="1" parent="1">
          <mxGeometry x="-270" y="260" width="150" height="50" as="geometry" />
        </mxCell>
        <mxCell id="ZnBpWJx0D-PWCoCfkPdr-21" value="«interface»&lt;br&gt;&lt;b&gt;ResourceResolver&lt;/b&gt;" style="html=1;whiteSpace=wrap;" vertex="1" parent="1">
          <mxGeometry x="-250" y="150" width="110" height="50" as="geometry" />
        </mxCell>
        <mxCell id="ZnBpWJx0D-PWCoCfkPdr-24" style="edgeStyle=orthogonalEdgeStyle;shape=connector;rounded=1;orthogonalLoop=1;jettySize=auto;html=1;entryX=0.5;entryY=1;entryDx=0;entryDy=0;labelBackgroundColor=default;strokeColor=default;align=center;verticalAlign=middle;fontFamily=Helvetica;fontSize=11;fontColor=default;endArrow=classic;" edge="1" parent="1" source="ZnBpWJx0D-PWCoCfkPdr-23" target="ZnBpWJx0D-PWCoCfkPdr-4">
          <mxGeometry relative="1" as="geometry" />
        </mxCell>
        <mxCell id="ZnBpWJx0D-PWCoCfkPdr-28" style="edgeStyle=orthogonalEdgeStyle;shape=connector;rounded=1;orthogonalLoop=1;jettySize=auto;html=1;exitX=0.5;exitY=0;exitDx=0;exitDy=0;entryX=0.5;entryY=1;entryDx=0;entryDy=0;labelBackgroundColor=default;strokeColor=default;align=center;verticalAlign=middle;fontFamily=Helvetica;fontSize=11;fontColor=default;endArrow=classic;" edge="1" parent="1" source="ZnBpWJx0D-PWCoCfkPdr-23" target="ZnBpWJx0D-PWCoCfkPdr-25">
          <mxGeometry relative="1" as="geometry" />
        </mxCell>
        <mxCell id="ZnBpWJx0D-PWCoCfkPdr-31" style="edgeStyle=orthogonalEdgeStyle;shape=connector;rounded=1;orthogonalLoop=1;jettySize=auto;html=1;exitX=0.5;exitY=0;exitDx=0;exitDy=0;entryX=0.5;entryY=1;entryDx=0;entryDy=0;labelBackgroundColor=default;strokeColor=default;align=center;verticalAlign=middle;fontFamily=Helvetica;fontSize=11;fontColor=default;endArrow=classic;" edge="1" parent="1" source="ZnBpWJx0D-PWCoCfkPdr-23" target="ZnBpWJx0D-PWCoCfkPdr-30">
          <mxGeometry relative="1" as="geometry" />
        </mxCell>
        <mxCell id="ZnBpWJx0D-PWCoCfkPdr-23" value="«interface»&lt;br&gt;&lt;b&gt;ConfigurableListableBeanFactory&lt;/b&gt;" style="html=1;whiteSpace=wrap;" vertex="1" parent="1">
          <mxGeometry x="415" y="600" width="200" height="45" as="geometry" />
        </mxCell>
        <mxCell id="ZnBpWJx0D-PWCoCfkPdr-29" style="edgeStyle=orthogonalEdgeStyle;shape=connector;rounded=1;orthogonalLoop=1;jettySize=auto;html=1;exitX=0.5;exitY=0;exitDx=0;exitDy=0;entryX=0.5;entryY=1;entryDx=0;entryDy=0;labelBackgroundColor=default;strokeColor=default;align=center;verticalAlign=middle;fontFamily=Helvetica;fontSize=11;fontColor=default;endArrow=classic;" edge="1" parent="1" source="ZnBpWJx0D-PWCoCfkPdr-25" target="ZnBpWJx0D-PWCoCfkPdr-1">
          <mxGeometry relative="1" as="geometry" />
        </mxCell>
        <mxCell id="ZnBpWJx0D-PWCoCfkPdr-25" value="«interface»&lt;br&gt;&lt;b&gt;AutowireCapableBeanFactory&lt;/b&gt;" style="html=1;whiteSpace=wrap;" vertex="1" parent="1">
          <mxGeometry x="790" y="260" width="190" height="50" as="geometry" />
        </mxCell>
        <mxCell id="ZnBpWJx0D-PWCoCfkPdr-32" style="edgeStyle=orthogonalEdgeStyle;shape=connector;rounded=1;orthogonalLoop=1;jettySize=auto;html=1;labelBackgroundColor=default;strokeColor=default;align=center;verticalAlign=middle;fontFamily=Helvetica;fontSize=11;fontColor=default;endArrow=classic;" edge="1" parent="1" source="ZnBpWJx0D-PWCoCfkPdr-30" target="ZnBpWJx0D-PWCoCfkPdr-2">
          <mxGeometry relative="1" as="geometry" />
        </mxCell>
        <mxCell id="ZnBpWJx0D-PWCoCfkPdr-35" style="edgeStyle=orthogonalEdgeStyle;shape=connector;rounded=1;orthogonalLoop=1;jettySize=auto;html=1;exitX=0.5;exitY=0;exitDx=0;exitDy=0;entryX=0.5;entryY=1;entryDx=0;entryDy=0;labelBackgroundColor=default;strokeColor=default;align=center;verticalAlign=middle;fontFamily=Helvetica;fontSize=11;fontColor=default;endArrow=classic;" edge="1" parent="1" source="ZnBpWJx0D-PWCoCfkPdr-30" target="ZnBpWJx0D-PWCoCfkPdr-33">
          <mxGeometry relative="1" as="geometry" />
        </mxCell>
        <mxCell id="ZnBpWJx0D-PWCoCfkPdr-30" value="«interface»&lt;br&gt;&lt;b&gt;ConfigurableBeanFactory&lt;/b&gt;" style="html=1;whiteSpace=wrap;" vertex="1" parent="1">
          <mxGeometry x="235" y="500" width="190" height="40" as="geometry" />
        </mxCell>
        <mxCell id="ZnBpWJx0D-PWCoCfkPdr-33" value="«interface»&lt;br&gt;&lt;b&gt;SingletonBeanRegister&lt;/b&gt;" style="html=1;whiteSpace=wrap;" vertex="1" parent="1">
          <mxGeometry x="-290" y="420" width="170" height="40" as="geometry" />
        </mxCell>
        <mxCell id="ZnBpWJx0D-PWCoCfkPdr-41" style="edgeStyle=orthogonalEdgeStyle;shape=connector;rounded=1;orthogonalLoop=1;jettySize=auto;html=1;entryX=0.5;entryY=1;entryDx=0;entryDy=0;labelBackgroundColor=default;strokeColor=default;align=center;verticalAlign=middle;fontFamily=Helvetica;fontSize=11;fontColor=default;endArrow=classic;" edge="1" parent="1" source="ZnBpWJx0D-PWCoCfkPdr-40" target="ZnBpWJx0D-PWCoCfkPdr-23">
          <mxGeometry relative="1" as="geometry" />
        </mxCell>
        <mxCell id="ZnBpWJx0D-PWCoCfkPdr-44" style="edgeStyle=orthogonalEdgeStyle;shape=connector;rounded=1;orthogonalLoop=1;jettySize=auto;html=1;labelBackgroundColor=default;strokeColor=default;align=center;verticalAlign=middle;fontFamily=Helvetica;fontSize=11;fontColor=default;endArrow=classic;exitX=0.5;exitY=0;exitDx=0;exitDy=0;" edge="1" parent="1" source="ZnBpWJx0D-PWCoCfkPdr-40" target="ZnBpWJx0D-PWCoCfkPdr-42">
          <mxGeometry relative="1" as="geometry" />
        </mxCell>
        <mxCell id="ZnBpWJx0D-PWCoCfkPdr-40" value="&lt;p style=&quot;margin:0px;margin-top:4px;text-align:center;&quot;&gt;&lt;b&gt;Class&lt;/b&gt;&lt;/p&gt;&lt;hr size=&quot;1&quot;&gt;&lt;div style=&quot;height:2px;&quot;&gt;DefaultListableBeanFactory&lt;/div&gt;" style="verticalAlign=top;align=left;overflow=fill;fontSize=12;fontFamily=Helvetica;html=1;whiteSpace=wrap;fontColor=default;" vertex="1" parent="1">
          <mxGeometry x="435" y="910" width="160" height="60" as="geometry" />
        </mxCell>
        <mxCell id="ZnBpWJx0D-PWCoCfkPdr-51" style="edgeStyle=orthogonalEdgeStyle;shape=connector;rounded=1;orthogonalLoop=1;jettySize=auto;html=1;exitX=0.5;exitY=0;exitDx=0;exitDy=0;entryX=0.5;entryY=1;entryDx=0;entryDy=0;labelBackgroundColor=default;strokeColor=default;align=center;verticalAlign=middle;fontFamily=Helvetica;fontSize=11;fontColor=default;endArrow=classic;" edge="1" parent="1" source="ZnBpWJx0D-PWCoCfkPdr-42" target="ZnBpWJx0D-PWCoCfkPdr-45">
          <mxGeometry relative="1" as="geometry" />
        </mxCell>
        <mxCell id="ZnBpWJx0D-PWCoCfkPdr-42" value="&lt;p style=&quot;margin:0px;margin-top:4px;text-align:center;&quot;&gt;&lt;b&gt;Class&lt;/b&gt;&lt;/p&gt;&lt;hr size=&quot;1&quot;&gt;&lt;div style=&quot;height:2px;&quot;&gt;AbstractAutowireCapableBeanFactory&lt;/div&gt;" style="verticalAlign=top;align=left;overflow=fill;fontSize=12;fontFamily=Helvetica;html=1;whiteSpace=wrap;fontColor=default;" vertex="1" parent="1">
          <mxGeometry x="-310" y="760" width="210" height="52" as="geometry" />
        </mxCell>
        <mxCell id="ZnBpWJx0D-PWCoCfkPdr-52" style="edgeStyle=orthogonalEdgeStyle;shape=connector;rounded=1;orthogonalLoop=1;jettySize=auto;html=1;exitX=0.5;exitY=0;exitDx=0;exitDy=0;entryX=0.5;entryY=1;entryDx=0;entryDy=0;labelBackgroundColor=default;strokeColor=default;align=center;verticalAlign=middle;fontFamily=Helvetica;fontSize=11;fontColor=default;endArrow=classic;" edge="1" parent="1" source="ZnBpWJx0D-PWCoCfkPdr-45" target="ZnBpWJx0D-PWCoCfkPdr-47">
          <mxGeometry relative="1" as="geometry" />
        </mxCell>
        <mxCell id="ZnBpWJx0D-PWCoCfkPdr-45" value="&lt;p style=&quot;margin:0px;margin-top:4px;text-align:center;&quot;&gt;&lt;b&gt;Class&lt;/b&gt;&lt;/p&gt;&lt;hr size=&quot;1&quot;&gt;&lt;div style=&quot;height:2px;&quot;&gt;AbstractBeanFactory&lt;/div&gt;" style="verticalAlign=top;align=left;overflow=fill;fontSize=12;fontFamily=Helvetica;html=1;whiteSpace=wrap;fontColor=default;" vertex="1" parent="1">
          <mxGeometry x="-267.5" y="670" width="125" height="50" as="geometry" />
        </mxCell>
        <mxCell id="ZnBpWJx0D-PWCoCfkPdr-53" style="edgeStyle=orthogonalEdgeStyle;shape=connector;rounded=1;orthogonalLoop=1;jettySize=auto;html=1;exitX=0.5;exitY=0;exitDx=0;exitDy=0;entryX=0.5;entryY=1;entryDx=0;entryDy=0;labelBackgroundColor=default;strokeColor=default;align=center;verticalAlign=middle;fontFamily=Helvetica;fontSize=11;fontColor=default;endArrow=classic;" edge="1" parent="1" source="ZnBpWJx0D-PWCoCfkPdr-47" target="ZnBpWJx0D-PWCoCfkPdr-48">
          <mxGeometry relative="1" as="geometry" />
        </mxCell>
        <mxCell id="ZnBpWJx0D-PWCoCfkPdr-47" value="&lt;p style=&quot;margin:0px;margin-top:4px;text-align:center;&quot;&gt;&lt;b&gt;Class&lt;/b&gt;&lt;/p&gt;&lt;hr size=&quot;1&quot;&gt;&lt;div style=&quot;height:2px;&quot;&gt;FactoryBeanRegistrySupport&lt;/div&gt;" style="verticalAlign=top;align=left;overflow=fill;fontSize=12;fontFamily=Helvetica;html=1;whiteSpace=wrap;fontColor=default;" vertex="1" parent="1">
          <mxGeometry x="-290" y="590" width="170" height="50" as="geometry" />
        </mxCell>
        <mxCell id="ZnBpWJx0D-PWCoCfkPdr-49" style="edgeStyle=orthogonalEdgeStyle;shape=connector;rounded=1;orthogonalLoop=1;jettySize=auto;html=1;exitX=0.5;exitY=0;exitDx=0;exitDy=0;entryX=0.5;entryY=1;entryDx=0;entryDy=0;labelBackgroundColor=default;strokeColor=default;align=center;verticalAlign=middle;fontFamily=Helvetica;fontSize=11;fontColor=default;endArrow=classic;" edge="1" parent="1" source="ZnBpWJx0D-PWCoCfkPdr-48" target="ZnBpWJx0D-PWCoCfkPdr-33">
          <mxGeometry relative="1" as="geometry" />
        </mxCell>
        <mxCell id="ZnBpWJx0D-PWCoCfkPdr-58" style="edgeStyle=orthogonalEdgeStyle;shape=connector;rounded=1;orthogonalLoop=1;jettySize=auto;html=1;exitX=0.5;exitY=0;exitDx=0;exitDy=0;entryX=0.5;entryY=1;entryDx=0;entryDy=0;labelBackgroundColor=default;strokeColor=default;align=center;verticalAlign=middle;fontFamily=Helvetica;fontSize=11;fontColor=default;endArrow=classic;" edge="1" parent="1" source="ZnBpWJx0D-PWCoCfkPdr-48" target="ZnBpWJx0D-PWCoCfkPdr-54">
          <mxGeometry relative="1" as="geometry" />
        </mxCell>
        <mxCell id="ZnBpWJx0D-PWCoCfkPdr-48" value="&lt;p style=&quot;margin:0px;margin-top:4px;text-align:center;&quot;&gt;&lt;b&gt;Class&lt;/b&gt;&lt;/p&gt;&lt;hr size=&quot;1&quot;&gt;&lt;div style=&quot;height:2px;&quot;&gt;DefaultSingletonBeanRegistry&lt;/div&gt;" style="verticalAlign=top;align=left;overflow=fill;fontSize=12;fontFamily=Helvetica;html=1;whiteSpace=wrap;fontColor=default;" vertex="1" parent="1">
          <mxGeometry x="-290" y="510" width="170" height="50" as="geometry" />
        </mxCell>
        <mxCell id="ZnBpWJx0D-PWCoCfkPdr-57" style="edgeStyle=orthogonalEdgeStyle;shape=connector;rounded=1;orthogonalLoop=1;jettySize=auto;html=1;exitX=0.5;exitY=0;exitDx=0;exitDy=0;entryX=0.5;entryY=1;entryDx=0;entryDy=0;labelBackgroundColor=default;strokeColor=default;align=center;verticalAlign=middle;fontFamily=Helvetica;fontSize=11;fontColor=default;endArrow=classic;" edge="1" parent="1" source="ZnBpWJx0D-PWCoCfkPdr-54" target="ZnBpWJx0D-PWCoCfkPdr-56">
          <mxGeometry relative="1" as="geometry" />
        </mxCell>
        <mxCell id="ZnBpWJx0D-PWCoCfkPdr-54" value="&lt;p style=&quot;margin:0px;margin-top:4px;text-align:center;&quot;&gt;&lt;b&gt;Class&lt;/b&gt;&lt;/p&gt;&lt;hr size=&quot;1&quot;&gt;&lt;div style=&quot;height:2px;&quot;&gt;SimpleAliasRegistry&lt;/div&gt;" style="verticalAlign=top;align=left;overflow=fill;fontSize=12;fontFamily=Helvetica;html=1;whiteSpace=wrap;fontColor=default;" vertex="1" parent="1">
          <mxGeometry x="-470" y="410" width="125" height="50" as="geometry" />
        </mxCell>
        <mxCell id="ZnBpWJx0D-PWCoCfkPdr-56" value="«interface»&lt;br&gt;&lt;b&gt;AliasRegistry&lt;/b&gt;" style="html=1;whiteSpace=wrap;" vertex="1" parent="1">
          <mxGeometry x="-462.5" y="315" width="110" height="50" as="geometry" />
        </mxCell>
      </root>
    </mxGraphModel>
  </diagram>
</mxfile>
